<svg xmlns="http://www.w3.org/2000/svg" xmlns:xlink="http://www.w3.org/1999/xlink"><symbol id="icon_fb" viewBox="0 0 25 25"><rect x=".5" y=".5" width="24" height="24" rx="3.5" stroke="#fff"/><path d="M15.6309 12.2H13.6667V20H10.75V12.2H9V9.8H10.75V8.35391C10.7523 6.24922 11.6022 5 14.013 5H16V7.4H14.667C13.7282 7.4 13.6667 7.76094 13.6667 8.43359V9.8H16L15.6309 12.2Z" fill="currentColor"/></symbol><symbol id="icon_instagram" viewBox="0 0 25 25"><rect x=".5" y=".5" width="24" height="24" rx="3.5" stroke="#fff"/><circle cx="12.5" cy="12.5" r="5" stroke="currentColor"/><circle cx="19.5" cy="5.5" r="1.5" fill="currentColor"/></symbol><symbol id="icon_logo" viewBox="0 0 134 23"><path d="M70.7534 9C70.7534 11.3296 69.6198 13.4742 68.4418 15.0666C67.857 15.8573 67.2713 16.498 66.8322 16.9406C66.6794 17.0947 66.5446 17.2245 66.4342 17.3278C66.3239 17.2245 66.1891 17.0947 66.0362 16.9406C65.5971 16.498 65.0115 15.8573 64.4266 15.0666C63.2486 13.4742 62.115 11.3296 62.115 9C62.115 6.67044 63.2486 4.52577 64.4266 2.93339C65.0115 2.14273 65.5971 1.502 66.0362 1.0594C66.1891 0.905279 66.3239 0.775524 66.4342 0.672181C66.5446 0.775524 66.6794 0.905279 66.8322 1.0594C67.2713 1.502 67.857 2.14273 68.4418 2.93339C69.6198 4.52577 70.7534 6.67044 70.7534 9Z"/><path d="M64.5572 8.77945C66.0181 10.4467 66.5897 12.8775 66.7816 14.9616C66.8767 15.9945 66.8765 16.9202 66.8524 17.5874C66.8431 17.8431 66.8304 18.0602 66.8183 18.23C66.6695 18.2438 66.4793 18.2584 66.2552 18.2689C65.6706 18.2964 64.8595 18.2967 63.9544 18.1882C62.1283 17.9692 59.9984 17.3167 58.5375 15.6495C57.0766 13.9822 56.5049 11.5515 56.3131 9.46735C56.218 8.43447 56.2182 7.50877 56.2423 6.84152C56.2516 6.58577 56.2643 6.36869 56.2764 6.1989C56.4252 6.18509 56.6154 6.17057 56.8395 6.16002C57.4241 6.13249 58.2352 6.13224 59.1403 6.24077C60.9664 6.45975 63.0963 7.11217 64.5572 8.77945Z"/><path d="M69.6491 8.77945C68.1882 10.4467 67.6166 12.8775 67.4247 14.9616C67.3296 15.9945 67.3298 16.9202 67.3539 17.5874C67.3632 17.8431 67.3759 18.0602 67.388 18.23C67.5368 18.2438 67.727 18.2584 67.9511 18.2689C68.5357 18.2964 69.3468 18.2967 70.2519 18.1882C72.078 17.9692 74.2079 17.3167 75.6688 15.6495C77.1297 13.9822 77.7014 11.5515 77.8932 9.46735C77.9883 8.43447 77.9881 7.50877 77.964 6.84152C77.9547 6.58577 77.942 6.36869 77.9299 6.1989C77.7811 6.18509 77.5909 6.17057 77.3668 6.16002C76.7822 6.13249 75.9711 6.13224 75.066 6.24077C73.2399 6.45975 71.11 7.11217 69.6491 8.77945Z"/><path d="M45 12H0"/><path d="M134 12L88 12"/></symbol><symbol id="icon_vk" viewBox="0 0 25 26"><rect x=".5" y="1.167" width="24" height="24" rx="3.5" stroke="#fff"/><path d="M18.3482 15.2148C19.5548 16.3842 19.8061 16.956 19.8468 17.0263C20.3449 17.8934 19.2945 17.9614 19.2945 17.9614L17.2819 17.9918C17.2819 17.9918 16.8472 18.0809 16.279 17.6708C15.5252 17.1318 14.4951 15.7257 13.9427 15.9085C13.3813 16.0936 13.5602 17.5677 13.5602 17.5677C13.5602 17.5677 13.5647 17.7481 13.4379 17.8934C13.2975 18.0457 13.0259 17.9871 13.0259 17.9871H12.4463C12.4463 17.9871 10.298 17.9965 8.54574 16.089C6.63733 14.0103 5.04132 10.1225 5.04132 10.1225C5.04132 10.1225 4.94398 9.87645 5.04811 9.74522C5.1681 9.59758 5.49182 9.59992 5.49182 9.59992H7.64474C7.64474 9.59992 7.84622 9.62805 7.9911 9.74053C8.11335 9.83193 8.179 10.0053 8.179 10.0053C8.179 10.0053 8.43934 10.7295 8.90117 11.5637C9.79991 13.1901 10.2187 13.5463 10.5243 13.3705C10.9681 13.1151 10.8345 11.0716 10.8345 11.0716C10.8345 11.0716 10.8435 10.3287 10.6104 9.99831C10.4293 9.74053 10.0919 9.66554 9.94253 9.64445C9.82029 9.63039 10.0195 9.33511 10.2776 9.20388C10.6647 9.00703 11.3506 8.99297 12.1588 9.00234C12.7882 9.00937 13.0259 9 13.0259 9C13.7684 9.18748 13.5171 9.91395 13.5171 11.6481C13.5171 12.2058 13.4198 12.9886 13.8046 13.2463C13.9699 13.3612 14.563 13.3776 15.5704 11.5848C16.0504 10.7342 16.4284 9.93504 16.4284 9.93504C16.4284 9.93504 16.5099 9.75459 16.6299 9.6796C16.7567 9.59992 16.9242 9.59992 16.9242 9.59992L19.1903 9.61164C19.1903 9.61164 19.8717 9.52259 19.9804 9.84599C20.0959 10.1834 19.702 10.774 18.7783 12.0652C17.257 14.1861 17.0872 13.9892 18.3482 15.2148Z" fill="currentColor"/></symbol><symbol id="icon_whatsapp" viewBox="0 0 27 27"><path stroke="#fff" stroke-miterlimit="10" d="M13.7,0.8C6.7,0.8,1.2,6.4,1.2,13.4c0,3,2.8,7.9,2.8,7.9l-1.5,4.5l5.7-1.1c0,0,3.5,1.3,5.4,1.3	c6.9,0,12.5-5.6,12.5-12.5C26.2,6.4,20.6,0.8,13.7,0.8z"/><path fill-rule="evenodd" clip-rule="evenodd" fill="currentColor" d="M11.7,7.1c-0.1-0.6-0.3-0.6-0.6-0.7c-0.2,0-0.4-0.1-0.6-0.1c-0.2,0-0.5,0-0.9,0.2C9.4,6.8,8.5,7.5,8.2,9	c-0.3,1.6,0.5,3.3,0.6,3.5c0.1,0.2,1.4,3.9,4.1,5.7c2.3,1.5,2.8,1.4,3.4,1.5c0.6,0,1.9-0.4,2.3-1.1c0.4-0.7,0.5-1.3,0.5-1.5	c0-0.1-0.2-0.3-0.5-0.5c-0.3-0.2-1.6-1.3-1.8-1.4c-0.2-0.2-0.4-0.2-0.7,0c-0.3,0.3-1,0.9-1.2,1.1c-0.2,0.2-0.4,0.2-0.7,0	c-0.3-0.2-1.1-0.7-2.1-2c-0.7-1-1.1-2.2-1.2-2.5c-0.1-0.3,0.1-0.5,0.3-0.6c0.2-0.1,0.4-0.3,0.5-0.5c0.2-0.2,0.3-0.3,0.4-0.5	c0.1-0.2,0.1-0.4,0.1-0.6C12.1,9.5,11.9,7.8,11.7,7.1z"/></symbol></svg>